# xmcd CD database file
#
# Track frame offsets:
#	150
#	12804
#	24575
#	39908
#	53951
#	68078
#	82193
#	95585
#	109939
#	124331
#	138938
#	153302
#	167806
#	180717
#	193684
#	208853
#	223423
#	236842
#	250253
#	265384
#
# Disc length: 3753 seconds
#
# Revision: 0
# Processed by: cddbd v1.5.2PL0 Copyright (c) Steve Scherf et al.
# Submitted via: CDex 1.51
#
DISCID=2b0ea714
DTITLE=Billie Holiday - Kind Of Holiday [CD9) - The 40's Vol.1
DYEAR=2009
DGENRE=Jazz
TTITLE0=No More (Camarate/Russell)
TTITLE1=You Better Go Now (Graham/Reichner)
TTITLE2=Don't Explain (Holiday/Herzog)
TTITLE3=What Is This Thing Called Love? (Porter)
TTITLE4=Good Morning Heartache (Higginbotham/Drake/Fischer)
TTITLE5=No Good Man (Gallop/Higginbotham/Fischer)
TTITLE6=There Is No Greater Love (Jones/Symes)
TTITLE7=Solitude (Ellington/Mills/De Lange)
TTITLE8=Baby, I Don't Cry Over You (Krouse)
TTITLE9=I'll Look Around (Cory/Cross)
TTITLE10=Deep Song (Cory/Cross)
TTITLE11=Easy Living (Robin/Rainger)
TTITLE12=Long Gone Blues (Holiday)
TTITLE13=Am I Blue? (Clarke/Akst)
TTITLE14=Weep No More (Jenkins/Adair)
TTITLE15=Girls Were Made To Take Care Of Boys (Blane)
TTITLE16=Porgy (I Love You) (Gershwin)
TTITLE17=My Man (Mon Homme) (Yvain/Williametz/Charles/Pollock)
TTITLE18=Ain't Nobody's Business If I Do (Grainger/Robins)
TTITLE19=PS I Love You (Jenkins/Mercer)
EXTD=YEAR: 2009
EXTT0=
EXTT1=
EXTT2=
EXTT3=
EXTT4=
EXTT5=
EXTT6=
EXTT7=
EXTT8=
EXTT9=
EXTT10=
EXTT11=
EXTT12=
EXTT13=
EXTT14=
EXTT15=
EXTT16=
EXTT17=
EXTT18=
EXTT19=
PLAYORDER=
